# xmcd
#
# Track frame offsets:
#	150
#	19125
#	33975
#	55350
#	73650
#	92775
#	105825
#	128325
#	150075
#	172275
#	194175
#	214875
#	232725
#	252900
#	272100
#	288975
#
# Disc length: 4064 seconds
#
# Revision: 1
# Processed by: cddbd v1.4PL0 Copyright (c) Steve Scherf et al.
# Submitted via: audiograbber 1.80
#
DISCID=dd0fde10
DTITLE=Various Artist - The Blue Album
DYEAR=1900
DGENRE=
TTITLE0=Renee Geyer - Foggy Highway
TTITLE1=Tess McKenzie - The Loneliest Day in December
TTITLE2=James Gillard - Mary
TTITLE3=Fiona Kernaghon - When I'm With You
TTITLE4=Michael Fix - When it's time to go
TTITLE5=Bernadette Robinson - Moon over Melbourne
TTITLE6=Broderick Smith - The Tower of Song
TTITLE7=Grace Knight - Stormy Weather
TTITLE8=Paul Grabowsky - Underground
TTITLE9=Suzanne Wylie - Will You Still Love Me Tomorrow
TTITLE10=Marc Hunter - God Bless The Child
TTITLE11=Gina Jefferys - Didn't We Shine
TTITLE12=Graeme Connors - Love Works
TTITLE13=Doug de Vries - Ashokan Farewell
TTITLE14=The Kanes - The River
TTITLE15=Maria Stratton - Favorite Chair
EXTD=
EXTT0=
EXTT1=
EXTT2=
EXTT3=
EXTT4=
EXTT5=
EXTT6=
EXTT7=
EXTT8=
EXTT9=
EXTT10=
EXTT11=
EXTT12=
EXTT13=
EXTT14=
EXTT15=
PLAYORDER=
